<?xml version="1.0" encoding="UTF-8"?>
<svg id="a" data-name="Layer 1" xmlns="http://www.w3.org/2000/svg" viewBox="0 0 209.25 250.54">
  <defs>
    <style>
      .b {
        fill: none;
        stroke: #000;
        stroke-linecap: round;
        stroke-miterlimit: 10;
        stroke-width: 14px;
      }
    </style>
  </defs>
  <path class="b" d="m17.38,7C12.96,15.54,6.66,30.84,7.01,50.58c.15,8.45.62,33.98,19.9,54.65,13.1,14.04,28.35,18.83,36.98,21.53,29.85,9.36,54.82,1.54,65.29-1.9,15.73-5.17,31.25-10.28,37.4-24.99,3.99-9.56,4.29-23.78-3.79-31.87-11.86-11.88-36.91-5.67-50.37,6.31-15.59,13.88-15.12,35.07-14.91,44.36.74,33.08,23.48,55.69,28.01,60.23,40.97,41.07,74.39,65.74,68.48,64.59-36.39-7.13-22-11.32-62-7.55"/>
  <path class="b" d="m196.02,243.44c-3.02-3.06-9.48-10.62-11.82-22.44-1.92-9.68.2-18,1.58-22.42"/>
</svg>