<?xml version="1.0" encoding="UTF-8"?>
<svg id="a" data-name="Layer 1" xmlns="http://www.w3.org/2000/svg" viewBox="0 0 92.89 115.5">
  <defs>
    <style>
      .b {
        fill: none;
        stroke: #000;
        stroke-linecap: round;
        stroke-miterlimit: 10;
        stroke-width: 7px;
      }
    </style>
  </defs>
  <path class="b" d="m12.25,3.5c-2.59,3.35-6.53,9.47-8,18-.63,3.65-2.53,14.68,4,25,4.43,7.01,10.54,10.2,14,12,11.96,6.23,23.25,4.71,28,4,7.13-1.07,14.17-2.12,18-8,2.49-3.82,3.78-9.92,1-14-4.08-5.99-15.28-5.17-22-1-7.79,4.83-9.33,13.98-10,18-2.4,14.3,5.44,25.71,7,28,14.1,20.71,47.61,19.79,45,20-18.5,1.5-21.5,6.5-21.5,6.5"/>
  <path class="b" d="m89.25,105.5c-1.9-.25-6.3-1.08-10.5-4.5-3.55-2.89-5.26-6.25-6-8"/>
</svg>